<?xml version="1.0" encoding="utf-8"?>
<!-- Generator: Adobe Illustrator 16.0.0, SVG Export Plug-In . SVG Version: 6.00 Build 0)  -->
<!DOCTYPE svg PUBLIC "-//W3C//DTD SVG 1.1//EN" "http://www.w3.org/Graphics/SVG/1.1/DTD/svg11.dtd">
<svg version="1.1" id="Layer_1" xmlns="http://www.w3.org/2000/svg" xmlns:xlink="http://www.w3.org/1999/xlink" x="0px" y="0px"
     width="16px" height="15px" viewBox="0 0 16 15" xml:space="preserve">
    <g>
        <g transform="translate(-287.000000, -64.000000)" fill="#FFFFFF">
            <g id="Group" transform="translate(287.000000, 61.000000)">
                <path d="M15.8717716,16.984375 C16.0142479,17.2708348 16.0379935,17.5052074 15.9430094,17.6875 C15.8242792,17.8958344 15.6580594,18 15.4443451,18 L0.555654879,18 C0.341940553,18 0.175720793,17.8958344 0.0569906122,17.6875 C-0.0379935325,17.5052074 -0.0142478525,17.2708348 0.128228365,16.984375 L7.50133573,3.3515625 C7.62006591,3.11718633 7.78628567,3 8,3 C8.21371433,3 8.37993409,3.11718633 8.49866427,3.3515625 L15.8717716,16.984375 Z M9.13980404,16.125 L9.13980404,14.25 L6.86019596,14.25 L6.86019596,16.125 L9.13980404,16.125 Z M9.13980404,13 L9.13980404,7.375 L6.86019596,7.375 L6.86019596,13 L9.13980404,13 Z" id="ion-alert-circled---Ionicons"></path>
            </g>
        </g>
    </g>
</svg>
